<svg width="828.75" height="184.25" viewBox="0 0 828.75 184.25" xmlns="http://www.w3.org/2000/svg"><g id="svgGroup" stroke-linecap="round" fill-rule="evenodd" font-size="9pt" stroke="#000" stroke-width="0.25mm" fill="#000" style="stroke:#000;stroke-width:0.25mm;fill:#000"><path d="M 665.75 184.25 L 614.5 184.25 L 591.75 161.25 L 591.75 53.5 L 597.25 53.5 L 597.25 159.5 L 616.25 178.75 L 663.5 178.75 L 687.5 153 L 687.5 53.5 L 693 53.5 L 693 184.25 L 687.5 184.25 L 687.5 160.25 L 665.75 184.25 Z M 810 184.25 L 737.5 184.25 L 737.5 178.75 L 808.25 178.75 L 823.25 163.75 L 823.25 133.5 L 809.5 119.5 L 750.5 119.5 L 733 102 L 733 72.5 L 751.5 53.5 L 819.25 53.5 L 819.25 59 L 753.5 59 L 738.5 74 L 738.5 100.25 L 752 114 L 811 114 L 828.75 131.75 L 828.75 165.25 L 810 184.25 Z M 5.5 184.25 L 0 184.25 L 67.5 0 L 79.5 0 L 146.75 184.25 L 141.25 184.25 L 121.5 130 L 25.25 130 L 5.5 184.25 Z M 550.75 184.25 L 478.25 184.25 L 455.5 161.25 L 455.5 76.75 L 478.25 53.5 L 533 53.5 L 551.75 72.5 L 551.75 85.75 L 546.25 85.75 L 546.25 74.25 L 531.25 59 L 480 59 L 461 78.25 L 461 159.25 L 480 178.5 L 550.75 178.75 L 550.75 184.25 Z M 181 184.25 L 175.5 184.25 L 175.5 0 L 181 0 L 181 77.5 L 202.75 53.5 L 253.75 53.5 L 276.75 76.75 L 276.75 161.25 L 253.75 184.25 L 202.75 184.25 L 181 160.25 L 181 184.25 Z M 384.75 184.25 L 334.5 184.25 L 311.75 161.25 L 311.75 128.25 L 334.5 105 L 407.5 105 L 407.5 78.25 L 388.5 59 L 328 59 L 328 53.5 L 390.25 53.5 L 413 76.75 L 413 184.25 L 407.5 184.25 L 407.5 161.25 L 384.75 184.25 Z M 181 153 L 205 178.75 L 252.25 178.75 L 271.25 159.5 L 271.25 78.25 L 252.25 59 L 205 59 L 181 84.75 L 181 153 Z M 71 5.5 L 27.25 124.5 L 119.5 124.5 L 76 5.5 L 71 5.5 Z M 317.25 159.5 L 336.25 178.75 L 383 178.75 L 407.5 154.5 L 407.5 110.5 L 336.25 110.5 L 317.25 129.75 L 317.25 159.5 Z" vector-effect="non-scaling-stroke"/></g></svg>