<svg width="863.1" height="73.7" viewBox="0 0 863.1 73.7" xmlns="http://www.w3.org/2000/svg"><g id="svgGroup" stroke-linecap="round" fill-rule="evenodd" font-size="9pt" stroke="#282b28" stroke-width="0.25mm" fill="#282b28" style="stroke:#282b28;stroke-width:0.25mm;fill:#282b28"><path d="M 787 73.7 L 784.8 73.7 L 784.8 21.4 L 787 21.4 L 787 31 L 795.6 21.4 L 816.2 21.4 L 825.2 30.6 L 833.5 21.4 L 854 21.4 L 863.1 30.7 L 863.1 73.7 L 860.9 73.7 L 860.9 31.3 L 853.3 23.6 L 834.4 23.6 L 825.3 33.4 L 825.3 73.7 L 823.1 73.7 L 823.1 31.3 L 815.5 23.6 L 796.6 23.6 L 787 33.9 L 787 73.7 Z M 369.1 73.7 L 366.9 73.7 L 366.9 0 L 410.9 0 L 410.9 2.2 L 369.1 2.2 L 369.1 35.2 L 405.6 35.2 L 405.6 37.4 L 369.1 37.4 L 369.1 73.7 Z M 447.6 73.7 L 427.1 73.7 L 418 64.5 L 418 21.4 L 420.2 21.4 L 420.2 63.8 L 427.8 71.5 L 446.7 71.5 L 456.3 61.2 L 456.3 21.4 L 458.5 21.4 L 458.5 73.7 L 456.3 73.7 L 456.3 64.1 L 447.6 73.7 Z M 538 73.7 L 517.5 73.7 L 508.4 64.5 L 508.4 21.4 L 510.6 21.4 L 510.6 63.8 L 518.2 71.5 L 537.1 71.5 L 546.7 61.2 L 546.7 21.4 L 548.9 21.4 L 548.9 73.7 L 546.7 73.7 L 546.7 64.1 L 538 73.7 Z M 711.4 73.7 L 682.4 73.7 L 673.3 64.5 L 673.3 30.7 L 682.4 21.4 L 704.3 21.4 L 711.8 29 L 711.8 34.3 L 709.6 34.3 L 709.6 29.7 L 703.6 23.6 L 683.1 23.6 L 675.5 31.3 L 675.5 63.7 L 683.1 71.4 L 711.4 71.5 L 711.4 73.7 Z M 643.2 73.7 L 612.7 73.7 L 603.6 64.5 L 603.6 30.7 L 612.7 21.4 L 635 21.4 L 644.1 30.7 L 644.1 48.4 L 605.8 48.4 L 605.8 63.8 L 613.4 71.5 L 643.2 71.5 L 643.2 73.7 Z M 185.4 73.7 L 183.2 73.7 L 183.2 23.6 L 175.1 23.6 L 175.1 21.4 L 183.2 21.4 L 183.2 7.6 L 190.7 0 L 202.5 0 L 202.5 2.2 L 191.4 2.2 L 185.4 8.2 L 185.4 21.4 L 200.6 21.4 L 200.6 23.6 L 185.4 23.6 L 185.4 73.7 Z M 2.2 73.7 L 0 73.7 L 0 0 L 33.8 0 L 42.9 9.2 L 42.9 33.1 L 33.8 42.3 L 2.2 42.3 L 2.2 73.7 Z M 171.5 73.7 L 159.7 73.7 L 152.3 66.1 L 152.3 23.6 L 144.1 23.6 L 144.1 21.4 L 152.3 21.4 L 152.3 6.7 L 154.5 6.7 L 154.5 21.4 L 169.6 21.4 L 169.6 23.6 L 154.5 23.6 L 154.5 65.4 L 160.4 71.5 L 171.5 71.5 L 171.5 73.7 Z M 497.9 73.7 L 486.1 73.7 L 478.7 66.1 L 478.7 23.6 L 470.5 23.6 L 470.5 21.4 L 478.7 21.4 L 478.7 6.7 L 480.9 6.7 L 480.9 21.4 L 496 21.4 L 496 23.6 L 480.9 23.6 L 480.9 65.4 L 486.8 71.5 L 497.9 71.5 L 497.9 73.7 Z M 112.8 73.7 L 110.6 73.7 L 110.6 21.4 L 112.8 21.4 L 112.8 31 L 121.5 21.4 L 137.9 21.4 L 137.9 23.6 L 122.4 23.6 L 112.8 33.9 L 112.8 73.7 Z M 570.1 73.7 L 567.9 73.7 L 567.9 21.4 L 570.1 21.4 L 570.1 31 L 578.8 21.4 L 595.2 21.4 L 595.2 23.6 L 579.7 23.6 L 570.1 33.9 L 570.1 73.7 Z M 84 73.7 L 61.7 73.7 L 52.6 64.5 L 52.6 30.7 L 61.7 21.4 L 84 21.4 L 93.1 30.7 L 93.1 64.5 L 84 73.7 Z M 240.9 73.7 L 218.6 73.7 L 209.5 64.5 L 209.5 30.7 L 218.6 21.4 L 240.9 21.4 L 250 30.7 L 250 64.5 L 240.9 73.7 Z M 339.8 73.7 L 317.5 73.7 L 308.4 64.5 L 308.4 30.7 L 317.5 21.4 L 339.8 21.4 L 348.9 30.7 L 348.9 64.5 L 339.8 73.7 Z M 758.2 73.7 L 735.9 73.7 L 726.8 64.5 L 726.8 30.7 L 735.9 21.4 L 758.2 21.4 L 767.3 30.7 L 767.3 64.5 L 758.2 73.7 Z M 269.7 73.7 L 267.5 73.7 L 267.5 0 L 269.7 0 L 269.7 73.7 Z M 54.8 63.8 L 62.4 71.5 L 83.3 71.5 L 90.9 63.8 L 90.9 31.3 L 83.3 23.6 L 62.4 23.6 L 54.8 31.3 L 54.8 63.8 Z M 211.7 63.8 L 219.3 71.5 L 240.2 71.5 L 247.8 63.8 L 247.8 31.3 L 240.2 23.6 L 219.3 23.6 L 211.7 31.3 L 211.7 63.8 Z M 310.6 63.8 L 318.2 71.5 L 339.1 71.5 L 346.7 63.8 L 346.7 31.3 L 339.1 23.6 L 318.2 23.6 L 310.6 31.3 L 310.6 63.8 Z M 729 63.8 L 736.6 71.5 L 757.5 71.5 L 765.1 63.8 L 765.1 31.3 L 757.5 23.6 L 736.6 23.6 L 729 31.3 L 729 63.8 Z M 2.2 2.2 L 2.2 40.1 L 33.1 40.1 L 40.7 32.4 L 40.7 9.9 L 33.1 2.2 L 2.2 2.2 Z M 290.9 73.7 L 288.7 73.7 L 288.7 21.4 L 290.9 21.4 L 290.9 73.7 Z M 605.8 31.3 L 605.8 46.2 L 641.9 46.2 L 641.9 31.3 L 634.3 23.6 L 613.4 23.6 L 605.8 31.3 Z M 659.3 73.7 L 657.1 73.7 L 657.1 63.3 L 659.3 63.3 L 659.3 73.7 Z M 290.9 15.7 L 288.7 15.7 L 288.7 5.4 L 290.9 5.4 L 290.9 15.7 Z" vector-effect="non-scaling-stroke"/></g></svg>